<svg width="104" height="28" viewBox="0 0 104 28" fill="none" xmlns="http://www.w3.org/2000/svg">
<path d="M42.8437 23.1918H42.7974C42.8182 23.1918 42.832 23.2149 42.853 23.2173H42.8668L42.8437 23.1941V23.1918ZM42.853 23.2173C42.638 23.2196 42.0968 23.3328 41.5258 23.3328C39.7223 23.3328 39.0981 22.5003 39.0981 21.4138V14.1745H42.7743C42.9823 14.1745 43.1443 13.9895 43.1443 13.7352V9.80455C43.1443 9.59646 42.9592 9.41148 42.7743 9.41148H39.0981V4.53291C39.0981 4.34794 38.9824 4.23232 38.7744 4.23232H33.7801C33.572 4.23232 33.4565 4.34794 33.4565 4.53291V9.55022C33.4565 9.55022 30.9363 10.1745 30.7743 10.1976C30.5894 10.2439 30.4737 10.4057 30.4737 10.5907V13.7352C30.4737 13.9895 30.6588 14.1745 30.8669 14.1745H33.4334V21.7581C33.4334 27.3998 37.3639 27.9778 40.046 27.9778C41.2714 27.9778 42.7511 27.5849 42.9823 27.4692C43.1212 27.4229 43.1906 27.2611 43.1906 27.0993V23.631C43.1937 23.5326 43.1612 23.4364 43.0994 23.36C43.0374 23.2836 42.9499 23.232 42.853 23.2149V23.2173ZM97.6411 18.1282C97.6411 13.9432 95.9533 13.3883 94.1729 13.5733C92.7856 13.6658 91.6757 14.3594 91.6757 14.3594V22.4982C91.6757 22.4982 92.8087 23.2843 94.4965 23.3304C96.8781 23.3998 97.6411 22.5443 97.6411 18.1282ZM103.26 17.7583C103.26 25.6888 100.693 27.9547 96.2076 27.9547C92.4156 27.9547 90.3809 26.0357 90.3809 26.0357C90.3809 26.0357 90.2885 27.0993 90.1728 27.238C90.1036 27.3766 89.9879 27.4229 89.8493 27.4229H86.4273C86.1961 27.4229 85.988 27.238 85.988 27.0299L86.0341 1.34217C86.0341 1.13408 86.2192 0.949109 86.4273 0.949109H91.3521C91.5602 0.949109 91.7451 1.13408 91.7451 1.34217V10.0589C91.7451 10.0589 93.6411 8.83346 96.4157 8.83346L96.3925 8.78722C99.1671 8.78722 103.26 9.82767 103.26 17.7583ZM83.0978 9.41148H78.2423C77.988 9.41148 77.8493 9.59646 77.8493 9.85079V22.4288C77.8493 22.4288 76.5777 23.3304 74.8434 23.3304C73.1094 23.3304 72.6007 22.5443 72.6007 20.8102V9.82767C72.6007 9.61958 72.4158 9.4346 72.2077 9.4346H67.2597C67.0516 9.4346 66.8667 9.61958 66.8667 9.82767V21.6426C66.8667 26.7293 69.7107 28.001 73.618 28.001C76.832 28.001 79.4446 26.2206 79.4446 26.2206C79.4446 26.2206 79.5602 27.1223 79.6297 27.2611C79.6758 27.3766 79.8377 27.4692 79.9995 27.4692H83.0978C83.3521 27.4692 83.4909 27.2843 83.4909 27.0762L83.537 9.80455C83.537 9.59646 83.3521 9.41148 83.0978 9.41148ZM28.3004 9.38837H23.3755C23.1675 9.38837 22.9826 9.59646 22.9826 9.85079V26.8219C22.9826 27.2843 23.2832 27.446 23.6761 27.446H28.1155C28.5779 27.446 28.6934 27.238 28.6934 26.8219V9.78144C28.6934 9.57334 28.5085 9.38837 28.3004 9.38837ZM25.8728 1.57338C24.0923 1.57338 22.6819 2.98377 22.6819 4.76411C22.6819 6.54446 24.0923 7.95484 25.8728 7.95484C27.6068 7.95484 29.0171 6.54446 29.0171 4.76411C29.0171 2.98377 27.6068 1.57338 25.8728 1.57338ZM63.9996 0.995352H59.121C58.913 0.995352 58.7281 1.18032 58.7281 1.38841V10.845H51.0749V1.38841C51.0749 1.18032 50.8898 0.995352 50.6817 0.995352H45.7571C45.5488 0.995352 45.3639 1.18032 45.3639 1.38841V27.0762C45.3639 27.2843 45.5719 27.4692 45.7571 27.4692H50.6817C50.8898 27.4692 51.0749 27.2843 51.0749 27.0762V16.0935H58.7281L58.6818 27.0762C58.6818 27.2843 58.8667 27.4692 59.0747 27.4692H63.9996C64.2077 27.4692 64.3926 27.2843 64.3926 27.0762V1.38841C64.3926 1.18032 64.2077 0.995352 63.9996 0.995352ZM20.3698 12.371V25.6426C20.3698 25.7351 20.3467 25.8969 20.2312 25.9432C20.2312 25.9432 17.3409 28.001 12.578 28.001C6.82076 28.001 0 26.1975 0 14.3132C0 2.42887 5.96528 -0.0219832 11.7918 0.00113792C16.8323 0.00113792 18.8669 1.13408 19.1906 1.34217C19.2831 1.45778 19.3294 1.55026 19.3294 1.66587L18.3583 5.78146C18.3583 5.98954 18.1502 6.24387 17.8958 6.17451C17.0635 5.92018 15.8149 5.41151 12.8785 5.41151C9.47971 5.41151 5.82655 6.3826 5.82655 14.0357C5.82655 21.6889 9.29474 22.5906 11.7918 22.5906C13.919 22.5906 14.682 22.3362 14.682 22.3362V17.0184H11.2832C11.0288 17.0184 10.8439 16.8334 10.8439 16.6253V12.371C10.8439 12.1629 11.0288 11.9779 11.2832 11.9779H19.9306C20.1849 11.9779 20.3698 12.1629 20.3698 12.371Z" fill="black"/>
</svg>
