<svg width="129" height="28" viewBox="0 0 129 28" fill="none" xmlns="http://www.w3.org/2000/svg">
<path d="M51.6203 16.1189L49.3809 10.0822C49.2895 9.83532 48.9402 9.83532 48.8487 10.0822L46.6096 16.1192C46.5937 16.1622 46.5884 16.2083 46.5941 16.2537C46.5999 16.2991 46.6166 16.3424 46.6427 16.38C46.6689 16.4175 46.7037 16.4482 46.7444 16.4694C46.7848 16.4906 46.8299 16.5016 46.8758 16.5016H51.3541C51.3998 16.5016 51.4449 16.4905 51.4855 16.4693C51.526 16.4481 51.5608 16.4174 51.587 16.3798C51.6131 16.3422 51.6298 16.2989 51.6354 16.2535C51.6413 16.2081 51.636 16.162 51.6201 16.119L51.6203 16.1189ZM52.6547 19.512H45.5752C45.5172 19.512 45.4609 19.5297 45.4132 19.5628C45.3658 19.5959 45.3294 19.6427 45.3092 19.697L43.9154 23.4532C43.8954 23.5075 43.859 23.5544 43.8116 23.5874C43.7639 23.6205 43.7074 23.6382 43.6494 23.6382H40.5811C40.5346 23.6382 40.4889 23.6269 40.4481 23.6051C40.4071 23.5833 40.3721 23.5518 40.346 23.5133C40.3201 23.475 40.3038 23.4307 40.2989 23.3846C40.2941 23.3385 40.3005 23.2919 40.3176 23.2489L47.3822 5.65008C47.4034 5.5975 47.4397 5.55249 47.4868 5.5208C47.5336 5.4891 47.5891 5.47219 47.6458 5.47224H50.5839C50.6996 5.47224 50.8038 5.54261 50.8472 5.65008L57.9115 23.2487C57.9288 23.2917 57.9354 23.3383 57.9304 23.3846C57.9255 23.4307 57.9094 23.475 57.8833 23.5135C57.8575 23.552 57.8223 23.5835 57.7812 23.6053C57.7404 23.6271 57.6945 23.6384 57.6482 23.6384H54.5803C54.5224 23.6384 54.4658 23.6207 54.4181 23.5874C54.3707 23.5544 54.3343 23.5075 54.3143 23.4532L52.9203 19.697C52.9001 19.6427 52.8639 19.5959 52.8163 19.5628C52.7689 19.5297 52.7123 19.512 52.6543 19.512H52.6547ZM59.3492 11.6485H61.9737C62.0489 11.6485 62.1211 11.6784 62.1743 11.7316C62.2274 11.7848 62.2574 11.857 62.2574 11.9323V23.3545C62.2574 23.4297 62.2274 23.5019 62.1743 23.5551C62.1211 23.6082 62.0489 23.6382 61.9737 23.6382H59.3492C59.274 23.6382 59.2017 23.6082 59.1486 23.5551C59.0953 23.5019 59.0654 23.4297 59.0654 23.3545V11.9321C59.0654 11.8568 59.0953 11.7847 59.1486 11.7314C59.2017 11.6782 59.274 11.6483 59.3492 11.6483V11.6485ZM71.8289 14.4269C71.8289 14.5022 71.7989 14.5744 71.7457 14.6276C71.6926 14.6808 71.6203 14.7107 71.545 14.7107H71.4657C70.1679 14.7107 69.2161 15.0221 68.6108 15.6449C68.0049 16.2678 67.7026 17.2973 67.7026 18.7333V23.3545C67.7026 23.4297 67.6726 23.5019 67.6196 23.5551C67.5663 23.6082 67.4941 23.6382 67.4189 23.6382H64.8201C64.7449 23.6382 64.6727 23.6082 64.6195 23.5551C64.5662 23.5019 64.5364 23.4297 64.5364 23.3545V11.9321C64.5364 11.8568 64.5662 11.7847 64.6195 11.7314C64.6727 11.6782 64.7449 11.6483 64.8201 11.6483H67.3928C67.4681 11.6483 67.5402 11.6782 67.5935 11.7314C67.6466 11.7847 67.6765 11.8568 67.6765 11.9321V14.1914H67.7286C68.0399 13.2572 68.5331 12.5396 69.208 12.0375C69.8825 11.5359 70.713 11.2849 71.699 11.2849H71.8289V14.4268V14.4269ZM79.0049 14.3214C78.9296 14.3214 78.8573 14.3513 78.8042 14.4045C78.7509 14.4577 78.721 14.5299 78.721 14.6052V19.3561C78.721 19.8407 78.8157 20.1866 79.0062 20.3942C79.1964 20.6017 79.5252 20.7055 79.9924 20.7055H80.2536C80.3288 20.7055 80.4012 20.7355 80.4543 20.7888C80.5075 20.8419 80.5375 20.914 80.5375 20.9894V23.3801C80.5375 23.4554 80.5075 23.5275 80.4543 23.5808C80.4012 23.6341 80.3288 23.6638 80.2536 23.6638H79.1359C77.9768 23.6638 77.0859 23.3655 76.4631 22.7686C75.8401 22.1719 75.5286 21.2854 75.5286 20.1086V14.6052C75.5286 14.5299 75.4986 14.4577 75.4456 14.4045C75.3923 14.3513 75.3201 14.3214 75.2449 14.3214H73.6067C73.5314 14.3214 73.4593 14.2915 73.406 14.2383C73.3527 14.185 73.3228 14.1129 73.3228 14.0376V11.9321C73.3228 11.8568 73.3527 11.7847 73.406 11.7314C73.4593 11.6782 73.5314 11.6483 73.6067 11.6483H75.2451C75.3203 11.6483 75.3925 11.6184 75.4457 11.5652C75.4988 11.512 75.5288 11.4398 75.5288 11.3645V7.13105C75.5288 7.05578 75.5587 6.9836 75.612 6.93038C75.6651 6.87716 75.7374 6.84728 75.8127 6.84728H78.4371C78.5123 6.84728 78.5845 6.87716 78.6377 6.93038C78.6908 6.9836 78.7208 7.05578 78.7208 7.13105V11.3645C78.7208 11.4398 78.7507 11.512 78.804 11.5652C78.8571 11.6184 78.9294 11.6483 79.0047 11.6483H80.9024C80.9777 11.6483 81.0498 11.6782 81.1031 11.7314C81.1562 11.7847 81.1861 11.8568 81.1861 11.9321V14.0378C81.1861 14.113 81.1562 14.1852 81.1031 14.2384C81.0498 14.2917 80.9777 14.3216 80.9024 14.3216H79.0049V14.3214ZM91.0223 20.0827C91.6192 19.4599 91.9175 18.6468 91.9175 17.6432C91.9175 16.6401 91.6192 15.8266 91.0223 15.2038C90.4254 14.5809 89.6423 14.2695 88.6734 14.2695C87.7045 14.2695 86.9221 14.5809 86.3249 15.2038C85.7282 15.8266 85.4297 16.6401 85.4297 17.6432C85.4297 18.6468 85.7282 19.4599 86.3249 20.0827C86.9221 20.7055 87.7045 21.017 88.6734 21.017C89.6423 21.017 90.4254 20.7055 91.0223 20.0827ZM84.9626 23.2747C84.0802 22.7733 83.3836 22.042 82.8735 21.0818C82.3629 20.1216 82.1078 18.9756 82.1078 17.6432C82.1078 16.3113 82.3629 15.1648 82.8735 14.2046C83.3836 13.2445 84.0802 12.5139 84.9626 12.0118C85.845 11.51 86.8136 11.2592 87.869 11.2592C88.8033 11.2592 89.6034 11.4408 90.2698 11.804C90.9354 12.1673 91.4674 12.6779 91.8656 13.3353H91.9175V11.9321C91.9175 11.8568 91.9475 11.7847 92.0005 11.7314C92.0538 11.6782 92.126 11.6483 92.2012 11.6483H94.7998C94.875 11.6483 94.9474 11.6782 95.0004 11.7314C95.0537 11.7847 95.0837 11.8568 95.0837 11.9321V23.3543C95.0837 23.4295 95.0537 23.5017 95.0004 23.5549C94.9474 23.608 94.875 23.638 94.7998 23.638H92.2012C92.126 23.638 92.0538 23.608 92.0005 23.5549C91.9475 23.5017 91.9175 23.4295 91.9175 23.3543V21.9512H91.8656C91.4674 22.609 90.9354 23.119 90.2696 23.4822C89.6034 23.8456 88.8035 24.0272 87.869 24.0272C86.8136 24.0272 85.845 23.7762 84.9626 23.2747ZM105.891 20.0827C106.488 19.4599 106.786 18.6468 106.786 17.6432C106.786 16.6401 106.488 15.8266 105.891 15.2038C105.294 14.5809 104.511 14.2695 103.542 14.2695C102.573 14.2695 101.79 14.5809 101.193 15.2038C100.597 15.8266 100.298 16.6401 100.298 17.6432C100.298 18.6468 100.597 19.4599 101.193 20.0827C101.79 20.7055 102.573 21.017 103.542 21.017C104.511 21.017 105.294 20.7055 105.891 20.0827ZM101.946 23.4822C101.28 23.119 100.748 22.609 100.35 21.9512H100.298V23.3543C100.298 23.4295 100.268 23.5017 100.215 23.5549C100.162 23.608 100.089 23.638 100.014 23.638H97.3898C97.3145 23.638 97.2424 23.608 97.1891 23.5549C97.136 23.5017 97.1061 23.4295 97.1061 23.3543V5.75545C97.1061 5.6802 97.136 5.608 97.1891 5.55479C97.2424 5.50157 97.3145 5.47168 97.3898 5.47168H100.014C100.089 5.47168 100.162 5.50157 100.215 5.55479C100.268 5.608 100.298 5.6802 100.298 5.75545V13.3351H100.35C100.748 12.6777 101.28 12.1673 101.946 11.804C102.612 11.4406 103.412 11.259 104.347 11.259C105.402 11.259 106.371 11.5098 107.253 12.0116C108.136 12.5137 108.832 13.2443 109.342 14.2043C109.852 15.165 110.108 16.3115 110.108 17.6433C110.108 18.9758 109.853 20.1216 109.342 21.082C108.832 22.0422 108.136 22.7735 107.253 23.2747C106.371 23.7764 105.402 24.0276 104.347 24.0276C103.412 24.0276 102.612 23.8458 101.946 23.4824L101.946 23.4822ZM114.53 23.6382H111.905C111.83 23.6382 111.758 23.6082 111.705 23.5551C111.651 23.5019 111.622 23.4297 111.622 23.3545V5.75602C111.622 5.68077 111.651 5.60859 111.705 5.55537C111.758 5.50213 111.83 5.47224 111.905 5.47224H114.53C114.605 5.47224 114.677 5.50213 114.731 5.55537C114.784 5.60859 114.814 5.68077 114.814 5.75602V23.3545C114.814 23.4297 114.784 23.5019 114.731 23.5551C114.677 23.6082 114.605 23.6382 114.53 23.6382ZM120.72 14.4254C120.285 14.7648 119.991 15.2548 119.839 15.8958C119.798 16.0725 119.935 16.242 120.117 16.242H125.112C125.285 16.242 125.421 16.0869 125.393 15.9159C125.293 15.3095 125.033 14.8261 124.613 14.4644C124.12 14.0406 123.475 13.8287 122.68 13.8287C121.884 13.8287 121.23 14.0276 120.72 14.4254ZM127.117 12.9331C128.138 14.0493 128.649 15.6281 128.649 17.6693V18.0083C128.649 18.0836 128.619 18.1557 128.565 18.209C128.512 18.2622 128.44 18.2921 128.365 18.2921H120.021C119.979 18.2922 119.938 18.3013 119.901 18.3189C119.863 18.3365 119.829 18.3621 119.803 18.3939C119.776 18.4257 119.757 18.463 119.746 18.5031C119.735 18.5432 119.733 18.5852 119.74 18.6262C119.873 19.3845 120.209 19.9869 120.746 20.4331C121.36 20.9439 122.135 21.1989 123.069 21.1989C124.275 21.1989 125.392 20.7281 126.418 19.7864C126.543 19.6715 126.742 19.6958 126.84 19.8356L128.115 21.6671C128.156 21.724 128.173 21.7937 128.165 21.8629C128.157 21.9319 128.124 21.9957 128.072 22.042C127.446 22.5901 126.75 23.0527 126.001 23.4177C125.171 23.824 124.193 24.0276 123.069 24.0276C121.772 24.0276 120.638 23.7634 119.669 23.236C118.7 22.7085 117.948 21.9646 117.412 21.004C116.875 20.044 116.607 18.9325 116.607 17.6693C116.607 16.4066 116.867 15.2908 117.386 14.3216C117.905 13.3529 118.631 12.6003 119.566 12.0638C120.5 11.5278 121.59 11.2594 122.836 11.2594C124.669 11.2594 126.096 11.8175 127.117 12.9331ZM62.6002 7.42581C62.6002 8.49624 61.7324 9.36405 60.6617 9.36405C59.5909 9.36405 58.7231 8.49624 58.7231 7.42561C58.7231 6.355 59.5911 5.4872 60.6617 5.4872C61.7324 5.4872 62.6002 6.355 62.6002 7.42561" fill="black"/>
<path d="M14.9459 0.353507L2.46703 5.51704C1.77308 5.80424 1.78027 6.79011 2.47858 7.06688L15.0095 12.0361C16.1105 12.4728 17.3366 12.4728 18.4376 12.0361L30.9688 7.06669C31.6668 6.79011 31.6744 5.80443 30.98 5.51724L18.5016 0.353318C17.3631 -0.117773 16.0842 -0.117773 14.9458 0.353318" fill="black"/>
<path d="M17.8354 14.7495V27.1636C17.8354 27.7537 18.4308 28.1582 18.9797 27.9408L32.943 22.5209C33.0988 22.459 33.2324 22.3521 33.3265 22.2134C33.4206 22.0748 33.4707 21.9111 33.4707 21.7437V9.32978C33.4707 8.73933 32.8754 8.33502 32.3266 8.55258L18.3633 13.9725C18.2076 14.0343 18.074 14.1414 17.9799 14.2799C17.8858 14.4185 17.8354 14.5822 17.8354 14.7497" fill="black"/>
<path d="M14.5748 15.39L10.4308 17.3909L10.01 17.5943L1.26227 21.7858C0.707945 22.0534 0 21.6491 0 21.0331V9.38178C0 9.1589 0.11427 8.9665 0.267513 8.82178C0.330381 8.75916 0.401705 8.70567 0.479405 8.66286C0.688271 8.53742 0.986432 8.50394 1.23995 8.60421L14.5051 13.8603C15.1794 14.1278 15.2324 15.0726 14.5748 15.3902" fill="black"/>
<path d="M14.5748 15.39L10.4308 17.3909L0.267578 8.82158C0.330458 8.75905 0.40178 8.70561 0.47947 8.66286C0.688335 8.53742 0.986498 8.50394 1.24001 8.60421L14.5052 13.8603C15.1795 14.1278 15.2324 15.0726 14.5748 15.3902" fill="white" fill-opacity="0.25"/>
</svg>
