<svg width="203" height="25" viewBox="0 0 226 28" fill="none" xmlns="http://www.w3.org/2000/svg">
<path d="M8.20748 12.7723C8.12527 12.6647 8.01669 12.5802 7.89222 12.5268C7.76778 12.4735 7.63167 12.4531 7.49707 12.4677C7.36246 12.4824 7.23389 12.5315 7.12382 12.6103C7.01372 12.6891 6.92584 12.795 6.86865 12.9178L0.0846113 26.4817C0.0228097 26.6052 -0.0063698 26.7426 -0.000156642 26.8807C0.00605652 27.0188 0.0474561 27.1529 0.120111 27.2704C0.192767 27.388 0.294265 27.485 0.414972 27.5523C0.53568 27.6196 0.671587 27.655 0.809792 27.655H10.2562C10.4075 27.6585 10.5566 27.618 10.6853 27.5385C10.814 27.459 10.9169 27.3437 10.9814 27.2068C13.0191 22.9961 11.7842 16.5937 8.20748 12.7723Z" fill="black"/>
<path d="M13.1833 0.435373C11.4929 3.03633 10.5078 6.03212 10.3247 9.12872C10.1415 12.2253 10.7667 15.3163 12.1387 18.0984L16.693 27.2068C16.7603 27.3416 16.8638 27.4547 16.9919 27.5339C17.12 27.6132 17.2676 27.655 17.4181 27.655H26.8629C27.001 27.655 27.1369 27.6198 27.2577 27.5523C27.3784 27.4851 27.4799 27.388 27.5526 27.2704C27.6252 27.1529 27.6666 27.0188 27.6728 26.8807C27.679 26.7427 27.6499 26.6052 27.588 26.4817C27.588 26.4817 14.8817 1.06598 14.5624 0.430284C14.4992 0.300887 14.4009 0.191906 14.2787 0.115844C14.1564 0.0397814 14.0152 -0.000281928 13.8712 0.000249357C13.7272 0.000780641 13.5863 0.0418851 13.4647 0.118848C13.343 0.19581 13.2454 0.305513 13.1833 0.435373Z" fill="black"/>
<path d="M123.965 11.3108C123.965 14.6695 125.523 17.3361 131.617 18.5134C135.254 19.2767 136.015 19.8636 136.015 21.0756C136.015 22.253 135.252 23.015 132.691 23.015C129.596 22.9594 126.562 22.1386 123.861 20.6257V26.0963C125.696 26.9966 128.12 28.0009 132.622 28.0009C138.993 28.0009 141.521 25.1595 141.521 20.937L123.965 11.3108ZM141.521 20.937C141.521 16.9549 139.409 15.0847 133.453 13.804C130.163 13.0767 129.367 12.3498 129.367 11.3108C129.367 9.99611 130.544 9.44099 132.726 9.44099C135.357 9.44099 137.955 10.2374 140.413 11.3456V6.11662C138.056 5.04367 135.488 4.51134 132.899 4.55855C127.012 4.55855 123.965 7.12084 123.965 11.3108" fill="black"/>
<path d="M205.821 4.90454V27.6548H210.669V10.3065L212.71 14.9116L219.567 27.6548H225.662V4.90454H220.815V19.5867L218.979 15.3272L213.473 4.90454H205.821Z" fill="black"/>
<path d="M174.987 4.90454H169.689V27.6548H174.987V4.90454Z" fill="black"/>
<path d="M163.576 20.937C163.576 16.9549 161.464 15.0847 155.508 13.804C152.218 13.0767 151.422 12.3498 151.422 11.3108C151.422 9.99611 152.599 9.44099 154.781 9.44099C157.412 9.44099 160.01 10.2374 162.468 11.3456V6.11662C160.11 5.04367 157.543 4.51134 154.954 4.55855C149.067 4.55855 146.02 7.12084 146.02 11.3108C146.02 14.6695 147.578 17.3361 153.672 18.5134C157.309 19.2767 158.07 19.8636 158.07 21.0756C158.07 22.253 157.307 23.015 154.746 23.015C151.65 22.9594 148.617 22.1386 145.916 20.6257V26.0963C147.751 26.9966 150.175 28.0009 154.677 28.0009C161.048 28.0009 163.576 25.1595 163.576 20.937Z" fill="black"/>
<path d="M82.8081 4.90454V27.6548H93.6978L95.4122 22.7377H88.1406V4.90454H82.8081Z" fill="black"/>
<path d="M61.2937 4.90454V9.82134H67.1803V27.6548H72.5128V9.82134H78.8149V4.90454H61.2937Z" fill="black"/>
<path d="M53.5613 4.90454H46.573L38.6396 27.6548H44.698L45.8226 23.8232C48.5925 24.6366 51.5379 24.6366 54.3078 23.8232L55.4325 27.6548H61.4921L53.5613 4.90454ZM50.067 19.7207C49.08 19.7207 48.0982 19.5793 47.1513 19.3013L50.067 9.37309L52.9825 19.3047C52.0355 19.5816 51.0536 19.7218 50.067 19.7207Z" fill="black"/>
<path d="M112.471 4.90454H105.483L97.5496 27.6548H103.609L104.734 23.8232C107.504 24.6366 110.449 24.6366 113.219 23.8232L114.344 27.6548H120.403L112.471 4.90454ZM108.977 19.7207C107.99 19.7207 107.008 19.5793 106.061 19.3013L108.977 9.37309L111.892 19.3047C110.945 19.5816 109.963 19.7218 108.977 19.7207Z" fill="black"/>
<path d="M194.078 4.90454H187.091L179.157 27.6548H185.217L186.342 23.8232C189.111 24.6366 192.057 24.6366 194.827 23.8232L195.951 27.6548H202.012L194.078 4.90454ZM190.582 19.7207C189.596 19.7207 188.614 19.5793 187.667 19.3013L190.582 9.37309L193.498 19.3047C192.551 19.5816 191.569 19.7218 190.582 19.7207Z" fill="black"/>
</svg>
