<svg width="98" height="28" viewBox="0 0 98 28" fill="none" xmlns="http://www.w3.org/2000/svg">
<path d="M33.8897 15.5912C33.0394 15.1187 32.5984 14.7408 32.5984 14.2054C32.5984 13.5439 33.1969 13.103 34.1417 13.103C35.2441 13.103 36.2205 13.5754 36.2205 13.5754L36.9764 11.2132C36.9764 11.2132 36.2836 10.6463 34.1732 10.6463C31.2756 10.6463 29.2598 12.3156 29.2598 14.6463C29.2598 15.9691 30.2048 16.977 31.4646 17.7014C32.4724 18.2684 32.8504 18.6778 32.8504 19.2762C32.8504 19.9061 32.3464 20.4101 31.4016 20.4101C30.0158 20.4101 28.693 19.6856 28.693 19.6856L27.874 22.0479C27.874 22.0479 29.1023 22.8668 31.1496 22.8668C34.1417 22.8668 36.2836 21.3864 36.2836 18.7408C36.2836 17.3235 35.181 16.3156 33.8897 15.5912ZM45.7954 10.6148C44.3149 10.6148 43.1811 11.3077 42.2678 12.3786L42.2048 12.3471L43.4961 5.66993H40.189L36.9764 22.6463H40.2835L41.3858 16.851C41.8268 14.6463 42.9606 13.3235 44.0001 13.3235C44.7559 13.3235 45.0394 13.8274 45.0394 14.5518C45.0394 15.0243 44.9764 15.5597 44.8819 16.0321L43.6221 22.6778H46.9292L48.2205 15.8117C48.378 15.0873 48.4725 14.2369 48.4725 13.6384C48.504 11.7487 47.5275 10.6148 45.7954 10.6148ZM56 10.6148C52.0001 10.6148 49.3543 14.2369 49.3543 18.2369C49.3543 20.8194 50.9291 22.8983 53.9212 22.8983C57.8583 22.8983 60.5039 19.3707 60.5039 15.2762C60.5039 12.8825 59.1181 10.6148 56 10.6148ZM54.3622 20.3471C53.2284 20.3471 52.7559 19.3707 52.7559 18.1739C52.7559 16.2841 53.7322 13.166 55.559 13.166C56.7243 13.166 57.1338 14.1739 57.1338 15.1502C57.1338 17.229 56.126 20.3471 54.3622 20.3471ZM69.008 10.6148C66.7717 10.6148 65.5119 12.5991 65.5119 12.5991H65.4489L65.6379 10.8038H62.7087C62.5512 12.0006 62.2992 13.8274 62.0472 15.2132L59.7481 27.3707H63.055L63.9685 22.4573H64.0315C64.0315 22.4573 64.7244 22.8983 65.9844 22.8983C69.8898 22.8983 72.4409 18.8983 72.4409 14.8668C72.4409 12.6306 71.4331 10.6148 69.008 10.6148ZM65.8269 20.3786C64.9764 20.3786 64.4411 19.9061 64.4411 19.9061L65.0079 16.788C65.3859 14.7093 66.4882 13.355 67.622 13.355C68.63 13.355 68.945 14.2999 68.945 15.1817C68.9765 17.3235 67.685 20.3786 65.8269 20.3786ZM77.1653 5.85891C76.0945 5.85891 75.2757 6.70929 75.2757 7.78018C75.2757 8.75654 75.9055 9.44946 76.8505 9.44946H76.9135C77.9528 9.44946 78.8346 8.75654 78.8661 7.5282C78.8346 6.55181 78.1733 5.85891 77.1653 5.85891ZM72.5354 22.6463H75.8425L78.1103 10.8983H74.7717L72.5354 22.6463ZM86.5511 10.8668H84.252L84.378 10.2998C84.567 9.166 85.2598 8.15812 86.3621 8.15812C86.9606 8.15812 87.4331 8.3156 87.4331 8.3156L88.0944 5.70143C88.0944 5.70143 87.5276 5.41797 86.2991 5.41797C85.1338 5.41797 83.937 5.76443 83.0552 6.52033C81.9212 7.4967 81.3859 8.88252 81.1339 10.2684L81.0394 10.8353H79.4961L79.0236 13.3235H80.5669L78.7401 22.6463H82.0472L83.811 13.355H86.1103L86.5511 10.8668ZM94.5512 10.8983C94.5512 10.8983 92.4726 16.1266 91.5276 18.9928H91.4646C91.4016 18.0794 90.6457 10.8983 90.6457 10.8983H87.1496L89.1339 21.7014C89.1969 21.9534 89.1654 22.0794 89.0709 22.2684C88.6929 23.0243 88.0314 23.7488 87.2756 24.2526C86.6456 24.7251 85.9528 25.0086 85.3858 25.1976L86.2991 28.0007C86.9606 27.8432 88.3779 27.3077 89.5432 26.2054C91.0551 24.7881 92.4411 22.5833 93.8899 19.6226L97.9528 10.8983H94.5512Z" fill="black"/>
<path d="M15.811 27.308L24.0316 25.5129C24.0316 25.5129 21.0708 5.4498 21.0393 5.32381C21.0078 5.19783 20.9135 5.10333 20.7875 5.10333C20.693 5.10333 18.5827 4.94585 18.5827 4.94585L16.9764 3.33957C16.9449 3.30807 16.8819 3.27657 16.8504 3.24507L15.811 27.308ZM16.4724 3.24507C16.4409 3.24507 16.4094 3.24507 16.378 3.27657C16.3465 3.27657 16.063 3.37105 15.5591 3.52853C15.0866 2.1112 14.2047 0.85137 12.6929 0.85137H12.5669C12.1575 0.252945 11.622 0.000976562 11.1811 0.000976562C7.65355 0.000976562 5.95276 4.41043 5.44882 6.64664C4.09449 7.0561 3.11811 7.37106 2.99213 7.40254C2.23623 7.65452 2.20473 7.65452 2.11023 8.37893C2.01575 8.94585 0 24.4104 0 24.4104L15.4331 27.308L16.4724 3.24507ZM12.4724 4.31593V4.47341C11.622 4.72539 10.6772 5.04035 9.73228 5.32381C10.2677 3.30807 11.2441 2.33168 12.0945 1.95372C12.3465 2.48917 12.4724 3.27657 12.4724 4.31593ZM11.0866 0.945858C11.2441 0.945858 11.4016 1.00885 11.5276 1.10334C10.3937 1.63877 9.19685 2.96161 8.66141 5.63878C7.90551 5.85924 7.18111 6.11122 6.51968 6.3002C7.11811 4.28443 8.53543 0.945858 11.0866 0.945858ZM11.685 12.8829C11.685 12.8829 10.7717 12.4104 9.66929 12.4104C8.03149 12.4104 7.93701 13.4498 7.93701 13.7018C7.93701 15.1191 11.622 15.6545 11.622 18.9616C11.622 21.5758 9.95276 23.2451 7.74803 23.2451C5.07086 23.2451 3.71653 21.5758 3.71653 21.5758L4.44094 19.2136C4.44094 19.2136 5.85826 20.4104 7.02362 20.4104C7.81103 20.4104 8.12599 19.8119 8.12599 19.3396C8.12599 17.4813 5.10236 17.4183 5.10236 14.3632C5.10236 11.812 6.92912 9.32381 10.6457 9.32381C12.063 9.32381 12.7874 9.73325 12.7874 9.73325L11.685 12.8829ZM13.1024 1.76476C13.8898 1.85924 14.3937 2.74113 14.7402 3.78051C14.3622 3.90649 13.8898 4.03247 13.4173 4.18995V3.90649C13.4173 3.02461 13.2913 2.33168 13.1024 1.76476Z" fill="black"/>
</svg>
