<svg width="79" height="28" viewBox="0 0 79 28" fill="none" xmlns="http://www.w3.org/2000/svg">
<path d="M0.560059 0.000976562V21.7117L3.36005 21.7226V11.384H10.0908V8.64866H3.34928V2.72559H12.1262V0.000976562H0.560059ZM17.1447 4.41636C17.6302 4.41636 18.0959 4.22347 18.4392 3.88014C18.7826 3.53681 18.9754 3.07114 18.9754 2.58559C18.9754 2.10004 18.7826 1.63438 18.4392 1.29104C18.0959 0.947707 17.6302 0.754822 17.1447 0.754822C16.6591 0.754822 16.1935 0.947707 15.8501 1.29104C15.5068 1.63438 15.3139 2.10004 15.3139 2.58559C15.3139 3.07114 15.5068 3.53681 15.8501 3.88014C16.1935 4.22347 16.6591 4.41636 17.1447 4.41636ZM15.7339 7.14098V21.7226H18.5339V7.14098H15.7339Z" fill="black"/>
<path fill-rule="evenodd" clip-rule="evenodd" d="M28.8829 6.72095C25.1783 6.72095 22.5938 9.85479 22.5938 13.5809C22.5938 17.3071 25.1783 20.4409 28.8829 20.4409C30.5844 20.4409 31.9844 19.7948 33.0076 18.7179V20.6564C33.0146 21.2356 32.9069 21.8104 32.6905 22.3477C32.4741 22.8851 32.1534 23.3741 31.7468 23.7867C31.3403 24.1993 30.8559 24.5272 30.3217 24.7514C29.7878 24.9758 29.2146 25.0918 28.6353 25.0932C27.7415 25.0932 26.8583 24.7486 26.1583 24.2532L24.7583 26.6764C25.8408 27.376 27.0922 27.7707 28.3804 27.8185C29.6684 27.8664 30.9455 27.5656 32.077 26.948C33.2085 26.3305 34.1523 25.4191 34.8089 24.3098C35.4654 23.2005 35.8105 21.9346 35.8076 20.6455V7.1517H33.0076V8.45479C31.9844 7.37786 30.5844 6.7317 28.8829 6.7317V6.72095ZM25.3829 13.5809C25.3829 11.2656 27.149 9.44556 29.1953 9.44556C31.2415 9.44556 32.9967 11.2763 32.9967 13.5809C32.9967 15.8963 31.2306 17.7056 29.1953 17.7056C27.149 17.7056 25.3829 15.8963 25.3829 13.5809Z" fill="black"/>
<path d="M45.8661 9.44567C45.0652 9.4598 44.3022 9.78861 43.742 10.361C43.1818 10.9333 42.8693 11.7032 42.8723 12.5041V21.7226H40.0723V7.14105H42.8723V8.47644C43.2911 7.92122 43.8354 7.47281 44.4605 7.16777C45.0854 6.86272 45.7738 6.70966 46.4691 6.72105C48.4291 6.72105 49.9368 7.69028 50.7984 9.17644C51.2791 8.4314 51.9369 7.81717 52.7131 7.38868C53.4893 6.96018 54.3595 6.73079 55.2461 6.72105C58.423 6.72105 60.4152 9.28412 60.4152 12.4611V21.7226H57.6368V12.4933C57.6397 11.6924 57.3275 10.9225 56.7671 10.3502C56.2069 9.77783 55.4439 9.44903 54.643 9.43489C53.8422 9.44903 53.0792 9.77783 52.5188 10.3502C51.9587 10.9225 51.6462 11.6924 51.6491 12.4933V21.7119H48.8491V12.4933C48.8522 11.6943 48.5413 10.926 47.9832 10.3539C47.4254 9.78186 46.6651 9.45183 45.8661 9.43489V9.44567Z" fill="black"/>
<path fill-rule="evenodd" clip-rule="evenodd" d="M75.3091 8.79933C74.6733 8.13633 73.9087 7.61005 73.0625 7.25266C72.2163 6.89527 71.3061 6.71432 70.3875 6.72087C66.2305 6.72087 63.2798 10.2316 63.2798 14.4316C63.2798 18.6316 66.2305 22.1425 70.3875 22.1425C71.3059 22.1471 72.2155 21.9653 73.0615 21.6079C73.9073 21.2507 74.6721 20.7253 75.3091 20.0638V21.7225H78.0982V7.14087H75.2982V8.79933H75.3091ZM66.0691 14.4316C66.0691 11.6532 68.2014 9.44549 70.6891 9.44549C73.1659 9.44549 75.3091 11.6532 75.3091 14.4316C75.3091 17.2101 73.1766 19.407 70.6891 19.407C68.2121 19.407 66.0691 17.2101 66.0691 14.4316Z" fill="black"/>
</svg>
